<?xml version="1.0" standalone="no"?>
<!DOCTYPE svg PUBLIC "-//W3C//DTD SVG 20010904//EN"
 "http://www.w3.org/TR/2001/REC-SVG-20010904/DTD/svg10.dtd">
<svg version="1.0" xmlns="http://www.w3.org/2000/svg"
 width="512.000000pt" height="512.000000pt" viewBox="0 0 512.000000 512.000000"
 preserveAspectRatio="xMidYMid meet">

<g transform="translate(0.000000,512.000000) scale(0.100000,-0.100000)"
fill="#000000" stroke="none">
<path d="M1543 5100 c-27 -16 -36 -32 -57 -102 -106 -351 -1376 -4871 -1376
-4897 0 -24 9 -42 35 -68 32 -32 40 -35 77 -30 24 3 51 15 64 29 19 19 154
485 714 2468 381 1345 695 2464 699 2487 19 99 -72 165 -156 113z"/>
<path d="M2515 5106 c-51 -22 -60 -53 -60 -201 0 -142 8 -173 51 -196 31 -16
77 -16 108 0 43 24 51 54 51 200 0 152 -9 180 -67 200 -39 14 -46 13 -83 -3z"/>
<path d="M3469 5105 c-41 -22 -60 -71 -48 -125 8 -37 1168 -4146 1340 -4750
56 -195 70 -218 137 -227 37 -5 45 -2 77 30 26 26 35 44 35 68 0 25 -1271
4547 -1376 4897 -21 70 -30 86 -57 102 -38 23 -72 25 -108 5z"/>
<path d="M2534 4263 c-12 -2 -34 -18 -50 -34 l-29 -30 0 -353 c0 -378 1 -390
51 -417 31 -16 77 -16 108 0 50 27 51 39 51 417 l0 354 -30 29 c-31 29 -64 41
-101 34z"/>
<path d="M2497 2750 c-15 -12 -31 -38 -37 -58 -13 -50 -13 -854 0 -904 29
-104 171 -104 200 0 13 50 13 854 0 904 -20 72 -106 103 -163 58z"/>
<path d="M2534 1063 c-12 -2 -34 -18 -50 -34 l-29 -30 0 -462 c0 -431 1 -464
18 -489 39 -58 135 -58 174 0 17 25 18 58 18 489 l0 463 -30 29 c-31 29 -64
41 -101 34z"/>
</g>
</svg>
